<?xml version="1.0" encoding="UTF-8" standalone="no"?>
<!DOCTYPE svg PUBLIC "-//W3C//DTD SVG 1.1//EN"
 "http://www.w3.org/Graphics/SVG/1.1/DTD/svg11.dtd">
<!-- Generated by graphviz version 2.40.1 (20161225.0304)
 -->
<!-- Title: %3 Pages: 1 -->
<svg width="971pt" height="1518pt"
 viewBox="0.00 0.00 970.73 1517.91" xmlns="http://www.w3.org/2000/svg" xmlns:xlink="http://www.w3.org/1999/xlink">
<g id="graph0" class="graph" transform="scale(1 1) rotate(0) translate(4 1513.9063)">
<title>%3</title>
<polygon fill="#ffffff" stroke="transparent" points="-4,4 -4,-1513.9063 966.7334,-1513.9063 966.7334,4 -4,4"/>
<!-- 1 -->
<g id="node1" class="node">
<title>1</title>
<g id="a_node1"><a xlink:title="/anaconda3/lib/python3.6/site&#45;packages/pluggy/callers.py">
<polygon fill="#ff0000" stroke="#ff0000" points="482.8419,-1034.9336 374.2069,-1034.9336 374.2069,-980.9414 482.8419,-980.9414 482.8419,-1034.9336"/>
<text text-anchor="middle" x="428.5244" y="-1022.9355" font-family="Arial" font-size="10.00" fill="#ffffff">callers:151:_multicall</text>
<text text-anchor="middle" x="428.5244" y="-1011.4365" font-family="Arial" font-size="10.00" fill="#ffffff">100.00%</text>
<text text-anchor="middle" x="428.5244" y="-999.9375" font-family="Arial" font-size="10.00" fill="#ffffff">(0.00%)</text>
<text text-anchor="middle" x="428.5244" y="-988.4385" font-family="Arial" font-size="10.00" fill="#ffffff">2×</text>
</a>
</g>
</g>
<!-- 78 -->
<g id="node2" class="node">
<title>78</title>
<g id="a_node2"><a xlink:title="/anaconda3/lib/python3.6/site&#45;packages/_pytest/python.py">
<polygon fill="#ff0000" stroke="#ff0000" points="503.5613,-939.9395 353.4876,-939.9395 353.4876,-885.9473 503.5613,-885.9473 503.5613,-939.9395"/>
<text text-anchor="middle" x="428.5244" y="-927.9414" font-family="Arial" font-size="10.00" fill="#ffffff">python:145:pytest_pyfunc_call</text>
<text text-anchor="middle" x="428.5244" y="-916.4424" font-family="Arial" font-size="10.00" fill="#ffffff">100.00%</text>
<text text-anchor="middle" x="428.5244" y="-904.9434" font-family="Arial" font-size="10.00" fill="#ffffff">(0.00%)</text>
<text text-anchor="middle" x="428.5244" y="-893.4443" font-family="Arial" font-size="10.00" fill="#ffffff">2×</text>
</a>
</g>
</g>
<!-- 1&#45;&gt;78 -->
<g id="edge1" class="edge">
<title>1&#45;&gt;78</title>
<path fill="none" stroke="#ff0000" stroke-width="4" d="M428.5244,-980.716C428.5244,-971.2757 428.5244,-960.52 428.5244,-950.4012"/>
<polygon fill="#ff0000" stroke="#ff0000" stroke-width="4" points="432.0245,-950.1688 428.5244,-940.1688 425.0245,-950.1689 432.0245,-950.1688"/>
<text text-anchor="middle" x="448.2632" y="-963.9395" font-family="Arial" font-size="10.00" fill="#ff0000">100.00%</text>
<text text-anchor="middle" x="448.2632" y="-952.4404" font-family="Arial" font-size="10.00" fill="#ff0000">2×</text>
</g>
<!-- 90 -->
<g id="node13" class="node">
<title>90</title>
<g id="a_node13"><a xlink:title="/Users/bbeckman/RecurrentLeastSquares/tests/test_run_times.py">
<polygon fill="#0d357e" stroke="#0d357e" points="427.3663,-844.9453 263.6825,-844.9453 263.6825,-790.9531 427.3663,-790.9531 427.3663,-844.9453"/>
<text text-anchor="middle" x="345.5244" y="-832.9473" font-family="Arial" font-size="10.00" fill="#ffffff">test_run_times:8:test_mc_normal</text>
<text text-anchor="middle" x="345.5244" y="-821.4482" font-family="Arial" font-size="10.00" fill="#ffffff">8.80%</text>
<text text-anchor="middle" x="345.5244" y="-809.9492" font-family="Arial" font-size="10.00" fill="#ffffff">(0.25%)</text>
<text text-anchor="middle" x="345.5244" y="-798.4502" font-family="Arial" font-size="10.00" fill="#ffffff">1×</text>
</a>
</g>
</g>
<!-- 78&#45;&gt;90 -->
<g id="edge10" class="edge">
<title>78&#45;&gt;90</title>
<path fill="none" stroke="#0d357e" stroke-width=".5" d="M404.7399,-885.7219C394.4079,-873.8967 382.2722,-860.0074 371.6862,-847.8916"/>
<polygon fill="#0d357e" stroke="#0d357e" stroke-width=".5" points="372.5378,-847.0044 369.3124,-845.1747 370.6928,-848.6164 372.5378,-847.0044"/>
<text text-anchor="middle" x="411.7017" y="-868.9453" font-family="Arial" font-size="10.00" fill="#0d357e">8.80%</text>
<text text-anchor="middle" x="411.7017" y="-857.4463" font-family="Arial" font-size="10.00" fill="#0d357e">1×</text>
</g>
<!-- 118 -->
<g id="node14" class="node">
<title>118</title>
<g id="a_node14"><a xlink:title="/Users/bbeckman/RecurrentLeastSquares/tests/test_run_times.py">
<polygon fill="#f25602" stroke="#f25602" points="586.4136,-844.9453 436.6352,-844.9453 436.6352,-790.9531 586.4136,-790.9531 586.4136,-844.9453"/>
<text text-anchor="middle" x="511.5244" y="-832.9473" font-family="Arial" font-size="10.00" fill="#ffffff">test_run_times:12:test_mc_rls</text>
<text text-anchor="middle" x="511.5244" y="-821.4482" font-family="Arial" font-size="10.00" fill="#ffffff">91.20%</text>
<text text-anchor="middle" x="511.5244" y="-809.9492" font-family="Arial" font-size="10.00" fill="#ffffff">(0.22%)</text>
<text text-anchor="middle" x="511.5244" y="-798.4502" font-family="Arial" font-size="10.00" fill="#ffffff">1×</text>
</a>
</g>
</g>
<!-- 78&#45;&gt;118 -->
<g id="edge11" class="edge">
<title>78&#45;&gt;118</title>
<path fill="none" stroke="#f25602" stroke-width="3.65" d="M452.3089,-885.7219C461.3386,-875.3873 471.7458,-863.4761 481.2924,-852.55"/>
<polygon fill="#f25602" stroke="#f25602" stroke-width="3.65" points="483.9897,-854.5164 487.7365,-845.1747 478.9819,-850.1409 483.9897,-854.5164"/>
<text text-anchor="middle" x="496.4824" y="-868.9453" font-family="Arial" font-size="10.00" fill="#f25602">91.20%</text>
<text text-anchor="middle" x="496.4824" y="-857.4463" font-family="Arial" font-size="10.00" fill="#f25602">1×</text>
</g>
<!-- 4 -->
<g id="node3" class="node">
<title>4</title>
<g id="a_node3"><a xlink:title="/anaconda3/lib/python3.6/site&#45;packages/pluggy/__init__.py">
<polygon fill="#ff0000" stroke="#ff0000" points="487.2727,-1129.9277 369.7761,-1129.9277 369.7761,-1075.9355 487.2727,-1075.9355 487.2727,-1129.9277"/>
<text text-anchor="middle" x="428.5244" y="-1117.9297" font-family="Arial" font-size="10.00" fill="#ffffff">__init__:213:&lt;lambda&gt;</text>
<text text-anchor="middle" x="428.5244" y="-1106.4307" font-family="Arial" font-size="10.00" fill="#ffffff">100.00%</text>
<text text-anchor="middle" x="428.5244" y="-1094.9316" font-family="Arial" font-size="10.00" fill="#ffffff">(0.00%)</text>
<text text-anchor="middle" x="428.5244" y="-1083.4326" font-family="Arial" font-size="10.00" fill="#ffffff">2×</text>
</a>
</g>
</g>
<!-- 4&#45;&gt;1 -->
<g id="edge2" class="edge">
<title>4&#45;&gt;1</title>
<path fill="none" stroke="#ff0000" stroke-width="4" d="M428.5244,-1075.7101C428.5244,-1066.2699 428.5244,-1055.5141 428.5244,-1045.3954"/>
<polygon fill="#ff0000" stroke="#ff0000" stroke-width="4" points="432.0245,-1045.1629 428.5244,-1035.163 425.0245,-1045.163 432.0245,-1045.1629"/>
<text text-anchor="middle" x="448.2632" y="-1058.9336" font-family="Arial" font-size="10.00" fill="#ff0000">100.00%</text>
<text text-anchor="middle" x="448.2632" y="-1047.4346" font-family="Arial" font-size="10.00" fill="#ff0000">2×</text>
</g>
<!-- 7 -->
<g id="node4" class="node">
<title>7</title>
<g id="a_node4"><a xlink:title="/anaconda3/lib/python3.6/site&#45;packages/pluggy/__init__.py">
<polygon fill="#ff0000" stroke="#ff0000" points="483.5469,-1319.916 373.5019,-1319.916 373.5019,-1265.9238 483.5469,-1265.9238 483.5469,-1319.916"/>
<text text-anchor="middle" x="428.5244" y="-1307.918" font-family="Arial" font-size="10.00" fill="#ffffff">__init__:603:__call__</text>
<text text-anchor="middle" x="428.5244" y="-1296.4189" font-family="Arial" font-size="10.00" fill="#ffffff">100.00%</text>
<text text-anchor="middle" x="428.5244" y="-1284.9199" font-family="Arial" font-size="10.00" fill="#ffffff">(0.00%)</text>
<text text-anchor="middle" x="428.5244" y="-1273.4209" font-family="Arial" font-size="10.00" fill="#ffffff">2×</text>
</a>
</g>
</g>
<!-- 64 -->
<g id="node5" class="node">
<title>64</title>
<g id="a_node5"><a xlink:title="/anaconda3/lib/python3.6/site&#45;packages/pluggy/__init__.py">
<polygon fill="#ff0000" stroke="#ff0000" points="489.1646,-1224.9219 367.8842,-1224.9219 367.8842,-1170.9297 489.1646,-1170.9297 489.1646,-1224.9219"/>
<text text-anchor="middle" x="428.5244" y="-1212.9238" font-family="Arial" font-size="10.00" fill="#ffffff">__init__:219:_hookexec</text>
<text text-anchor="middle" x="428.5244" y="-1201.4248" font-family="Arial" font-size="10.00" fill="#ffffff">100.00%</text>
<text text-anchor="middle" x="428.5244" y="-1189.9258" font-family="Arial" font-size="10.00" fill="#ffffff">(0.00%)</text>
<text text-anchor="middle" x="428.5244" y="-1178.4268" font-family="Arial" font-size="10.00" fill="#ffffff">2×</text>
</a>
</g>
</g>
<!-- 7&#45;&gt;64 -->
<g id="edge3" class="edge">
<title>7&#45;&gt;64</title>
<path fill="none" stroke="#ff0000" stroke-width="4" d="M428.5244,-1265.6984C428.5244,-1256.2582 428.5244,-1245.5024 428.5244,-1235.3836"/>
<polygon fill="#ff0000" stroke="#ff0000" stroke-width="4" points="432.0245,-1235.1512 428.5244,-1225.1513 425.0245,-1235.1513 432.0245,-1235.1512"/>
<text text-anchor="middle" x="448.2632" y="-1248.9219" font-family="Arial" font-size="10.00" fill="#ff0000">100.00%</text>
<text text-anchor="middle" x="448.2632" y="-1237.4229" font-family="Arial" font-size="10.00" fill="#ff0000">2×</text>
</g>
<!-- 64&#45;&gt;4 -->
<g id="edge7" class="edge">
<title>64&#45;&gt;4</title>
<path fill="none" stroke="#ff0000" stroke-width="4" d="M428.5244,-1170.7043C428.5244,-1161.264 428.5244,-1150.5083 428.5244,-1140.3895"/>
<polygon fill="#ff0000" stroke="#ff0000" stroke-width="4" points="432.0245,-1140.1571 428.5244,-1130.1571 425.0245,-1140.1572 432.0245,-1140.1571"/>
<text text-anchor="middle" x="448.2632" y="-1153.9277" font-family="Arial" font-size="10.00" fill="#ff0000">100.00%</text>
<text text-anchor="middle" x="448.2632" y="-1142.4287" font-family="Arial" font-size="10.00" fill="#ff0000">2×</text>
</g>
<!-- 26 -->
<g id="node6" class="node">
<title>26</title>
<g id="a_node6"><a xlink:title="/anaconda3/lib/python3.6/site&#45;packages/numpy/core/fromnumeric.py">
<polygon fill="#0d1174" stroke="#0d1174" points="513.0078,-243.9824 392.041,-243.9824 392.041,-189.9902 513.0078,-189.9902 513.0078,-243.9824"/>
<text text-anchor="middle" x="452.5244" y="-231.9844" font-family="Arial" font-size="10.00" fill="#ffffff">fromnumeric:37:_wrapit</text>
<text text-anchor="middle" x="452.5244" y="-220.4854" font-family="Arial" font-size="10.00" fill="#ffffff">1.15%</text>
<text text-anchor="middle" x="452.5244" y="-208.9863" font-family="Arial" font-size="10.00" fill="#ffffff">(0.00%)</text>
<text text-anchor="middle" x="452.5244" y="-197.4873" font-family="Arial" font-size="10.00" fill="#ffffff">1×</text>
</a>
</g>
</g>
<!-- 98 -->
<g id="node7" class="node">
<title>98</title>
<g id="a_node7"><a xlink:title="/anaconda3/lib/python3.6/site&#45;packages/numpy/core/numeric.py">
<polygon fill="#0d1375" stroke="#0d1375" points="590.1769,-148.9883 482.872,-148.9883 482.872,-94.9961 590.1769,-94.9961 590.1769,-148.9883"/>
<text text-anchor="middle" x="536.5244" y="-136.9902" font-family="Arial" font-size="10.00" fill="#ffffff">numeric:424:asarray</text>
<text text-anchor="middle" x="536.5244" y="-125.4912" font-family="Arial" font-size="10.00" fill="#ffffff">1.46%</text>
<text text-anchor="middle" x="536.5244" y="-113.9922" font-family="Arial" font-size="10.00" fill="#ffffff">(0.13%)</text>
<text text-anchor="middle" x="536.5244" y="-102.4932" font-family="Arial" font-size="10.00" fill="#ffffff">200002×</text>
</a>
</g>
</g>
<!-- 26&#45;&gt;98 -->
<g id="edge4" class="edge">
<title>26&#45;&gt;98</title>
<path fill="none" stroke="#0d1174" stroke-width=".5" d="M474.079,-189.8457C482.3598,-179.6874 492.0214,-168.1523 501.1699,-157.9902 502.9428,-156.0209 504.7904,-154.0143 506.6702,-152.0068"/>
<polygon fill="#0d1174" stroke="#0d1174" stroke-width=".5" points="507.7392,-152.6589 509.2496,-149.2722 505.9569,-150.9778 507.7392,-152.6589"/>
<text text-anchor="middle" x="514.7017" y="-172.9883" font-family="Arial" font-size="10.00" fill="#0d1174">1.15%</text>
<text text-anchor="middle" x="514.7017" y="-161.4893" font-family="Arial" font-size="10.00" fill="#0d1174">1×</text>
</g>
<!-- 107 -->
<g id="node26" class="node">
<title>107</title>
<g id="a_node26"><a xlink:title="~">
<polygon fill="#0d1a77" stroke="#0d1a77" points="847.5293,-53.9941 611.5195,-53.9941 611.5195,-.002 847.5293,-.002 847.5293,-53.9941"/>
<text text-anchor="middle" x="729.5244" y="-41.9961" font-family="Arial" font-size="10.00" fill="#ffffff">~:0:&lt;built&#45;in method numpy.core.multiarray.array&gt;</text>
<text text-anchor="middle" x="729.5244" y="-30.4971" font-family="Arial" font-size="10.00" fill="#ffffff">3.20%</text>
<text text-anchor="middle" x="729.5244" y="-18.998" font-family="Arial" font-size="10.00" fill="#ffffff">(3.20%)</text>
<text text-anchor="middle" x="729.5244" y="-7.499" font-family="Arial" font-size="10.00" fill="#ffffff">300007×</text>
</a>
</g>
</g>
<!-- 98&#45;&gt;107 -->
<g id="edge23" class="edge">
<title>98&#45;&gt;107</title>
<path fill="none" stroke="#0d1274" stroke-width=".5" d="M590.2857,-95.531C615.3707,-83.1842 645.2842,-68.4609 670.9441,-55.8311"/>
<polygon fill="#0d1274" stroke="#0d1274" stroke-width=".5" points="671.7745,-56.7878 674.3738,-54.1431 670.6925,-54.5896 671.7745,-56.7878"/>
<text text-anchor="middle" x="675.1289" y="-77.9941" font-family="Arial" font-size="10.00" fill="#0d1274">1.33%</text>
<text text-anchor="middle" x="675.1289" y="-66.4951" font-family="Arial" font-size="10.00" fill="#0d1274">200002×</text>
</g>
<!-- 27 -->
<g id="node8" class="node">
<title>27</title>
<g id="a_node8"><a xlink:title="/anaconda3/lib/python3.6/site&#45;packages/numpy/core/fromnumeric.py">
<polygon fill="#0d1375" stroke="#0d1375" points="512.9088,-369.9746 378.1401,-369.9746 378.1401,-315.9824 512.9088,-315.9824 512.9088,-369.9746"/>
<text text-anchor="middle" x="445.5244" y="-357.9766" font-family="Arial" font-size="10.00" fill="#ffffff">fromnumeric:50:_wrapfunc</text>
<text text-anchor="middle" x="445.5244" y="-346.4775" font-family="Arial" font-size="10.00" fill="#ffffff">1.46%</text>
<text text-anchor="middle" x="445.5244" y="-334.9785" font-family="Arial" font-size="10.00" fill="#ffffff">(0.16%)</text>
<text text-anchor="middle" x="445.5244" y="-323.4795" font-family="Arial" font-size="10.00" fill="#ffffff">100001×</text>
</a>
</g>
</g>
<!-- 27&#45;&gt;26 -->
<g id="edge5" class="edge">
<title>27&#45;&gt;26</title>
<path fill="none" stroke="#0d1174" stroke-width=".5" d="M444.5368,-315.7472C444.1795,-297.868 444.2542,-273.9901 446.1699,-252.9844 446.3273,-251.2582 446.5235,-249.4906 446.7484,-247.7101"/>
<polygon fill="#0d1174" stroke="#0d1174" stroke-width=".5" points="447.9887,-247.6795 447.2469,-244.0463 445.5611,-247.3491 447.9887,-247.6795"/>
<text text-anchor="middle" x="460.7017" y="-283.4814" font-family="Arial" font-size="10.00" fill="#0d1174">1.15%</text>
<text text-anchor="middle" x="460.7017" y="-271.9824" font-family="Arial" font-size="10.00" fill="#0d1174">1×</text>
</g>
<!-- 28 -->
<g id="node9" class="node">
<title>28</title>
<g id="a_node9"><a xlink:title="/anaconda3/lib/python3.6/site&#45;packages/numpy/linalg/linalg.py">
<polygon fill="#0d1074" stroke="#0d1074" points="593.9137,-306.9785 479.1351,-306.9785 479.1351,-252.9863 593.9137,-252.9863 593.9137,-306.9785"/>
<text text-anchor="middle" x="536.5244" y="-294.9805" font-family="Arial" font-size="10.00" fill="#ffffff">linalg:105:_makearray</text>
<text text-anchor="middle" x="536.5244" y="-283.4814" font-family="Arial" font-size="10.00" fill="#ffffff">0.75%</text>
<text text-anchor="middle" x="536.5244" y="-271.9824" font-family="Arial" font-size="10.00" fill="#ffffff">(0.36%)</text>
<text text-anchor="middle" x="536.5244" y="-260.4834" font-family="Arial" font-size="10.00" fill="#ffffff">200001×</text>
</a>
</g>
</g>
<!-- 28&#45;&gt;98 -->
<g id="edge6" class="edge">
<title>28&#45;&gt;98</title>
<path fill="none" stroke="#0d0e73" stroke-width=".5" d="M536.5244,-252.8229C536.5244,-225.0438 536.5244,-181.953 536.5244,-152.8885"/>
<polygon fill="#0d0e73" stroke="#0d0e73" stroke-width=".5" points="537.7495,-152.5611 536.5244,-149.0612 535.2995,-152.5612 537.7495,-152.5611"/>
<text text-anchor="middle" x="556.1289" y="-220.4854" font-family="Arial" font-size="10.00" fill="#0d0e73">0.32%</text>
<text text-anchor="middle" x="556.1289" y="-208.9863" font-family="Arial" font-size="10.00" fill="#0d0e73">200001×</text>
</g>
<!-- 41 -->
<g id="node10" class="node">
<title>41</title>
<g id="a_node10"><a xlink:title="/anaconda3/lib/python3.6/site&#45;packages/numpy/linalg/linalg.py">
<polygon fill="#0d1174" stroke="#0d1174" points="909.2013,-369.9746 781.8475,-369.9746 781.8475,-315.9824 909.2013,-315.9824 909.2013,-369.9746"/>
<text text-anchor="middle" x="845.5244" y="-357.9766" font-family="Arial" font-size="10.00" fill="#ffffff">linalg:138:_commonType</text>
<text text-anchor="middle" x="845.5244" y="-346.4775" font-family="Arial" font-size="10.00" fill="#ffffff">0.94%</text>
<text text-anchor="middle" x="845.5244" y="-334.9785" font-family="Arial" font-size="10.00" fill="#ffffff">(0.53%)</text>
<text text-anchor="middle" x="845.5244" y="-323.4795" font-family="Arial" font-size="10.00" fill="#ffffff">100001×</text>
</a>
</g>
</g>
<!-- 65 -->
<g id="node11" class="node">
<title>65</title>
<g id="a_node11"><a xlink:title="/anaconda3/lib/python3.6/site&#45;packages/_pytest/python.py">
<polygon fill="#ff0000" stroke="#ff0000" points="480.1812,-1414.9102 376.8676,-1414.9102 376.8676,-1360.918 480.1812,-1360.918 480.1812,-1414.9102"/>
<text text-anchor="middle" x="428.5244" y="-1402.9121" font-family="Arial" font-size="10.00" fill="#ffffff">python:1177:runtest</text>
<text text-anchor="middle" x="428.5244" y="-1391.4131" font-family="Arial" font-size="10.00" fill="#ffffff">100.00%</text>
<text text-anchor="middle" x="428.5244" y="-1379.9141" font-family="Arial" font-size="10.00" fill="#ffffff">(0.00%)</text>
<text text-anchor="middle" x="428.5244" y="-1368.415" font-family="Arial" font-size="10.00" fill="#ffffff">2×</text>
</a>
</g>
</g>
<!-- 65&#45;&gt;7 -->
<g id="edge8" class="edge">
<title>65&#45;&gt;7</title>
<path fill="none" stroke="#ff0000" stroke-width="4" d="M428.5244,-1360.6926C428.5244,-1351.2523 428.5244,-1340.4965 428.5244,-1330.3778"/>
<polygon fill="#ff0000" stroke="#ff0000" stroke-width="4" points="432.0245,-1330.1454 428.5244,-1320.1454 425.0245,-1330.1454 432.0245,-1330.1454"/>
<text text-anchor="middle" x="448.2632" y="-1343.916" font-family="Arial" font-size="10.00" fill="#ff0000">100.00%</text>
<text text-anchor="middle" x="448.2632" y="-1332.417" font-family="Arial" font-size="10.00" fill="#ff0000">2×</text>
</g>
<!-- 77 -->
<g id="node12" class="node">
<title>77</title>
<g id="a_node12"><a xlink:title="/anaconda3/lib/python3.6/site&#45;packages/_pytest/runner.py">
<polygon fill="#ff0000" stroke="#ff0000" points="503.5515,-1509.9043 353.4973,-1509.9043 353.4973,-1455.9121 503.5515,-1455.9121 503.5515,-1509.9043"/>
<text text-anchor="middle" x="428.5244" y="-1497.9063" font-family="Arial" font-size="10.00" fill="#ffffff">runner:106:pytest_runtest_call</text>
<text text-anchor="middle" x="428.5244" y="-1486.4072" font-family="Arial" font-size="10.00" fill="#ffffff">100.00%</text>
<text text-anchor="middle" x="428.5244" y="-1474.9082" font-family="Arial" font-size="10.00" fill="#ffffff">(0.00%)</text>
<text text-anchor="middle" x="428.5244" y="-1463.4092" font-family="Arial" font-size="10.00" fill="#ffffff">2×</text>
</a>
</g>
</g>
<!-- 77&#45;&gt;65 -->
<g id="edge9" class="edge">
<title>77&#45;&gt;65</title>
<path fill="none" stroke="#ff0000" stroke-width="4" d="M428.5244,-1455.6867C428.5244,-1446.2465 428.5244,-1435.4907 428.5244,-1425.3719"/>
<polygon fill="#ff0000" stroke="#ff0000" stroke-width="4" points="432.0245,-1425.1395 428.5244,-1415.1395 425.0245,-1425.1396 432.0245,-1425.1395"/>
<text text-anchor="middle" x="448.2632" y="-1438.9102" font-family="Arial" font-size="10.00" fill="#ff0000">100.00%</text>
<text text-anchor="middle" x="448.2632" y="-1427.4111" font-family="Arial" font-size="10.00" fill="#ff0000">2×</text>
</g>
<!-- 96 -->
<g id="node17" class="node">
<title>96</title>
<g id="a_node17"><a xlink:title="/Users/bbeckman/RecurrentLeastSquares/experiments.py">
<polygon fill="#0d337e" stroke="#0d337e" points="413.6305,-749.9512 277.4184,-749.9512 277.4184,-695.959 413.6305,-695.959 413.6305,-749.9512"/>
<text text-anchor="middle" x="345.5244" y="-737.9531" font-family="Arial" font-size="10.00" fill="#ffffff">experiments:41:mc_normal</text>
<text text-anchor="middle" x="345.5244" y="-726.4541" font-family="Arial" font-size="10.00" fill="#ffffff">8.55%</text>
<text text-anchor="middle" x="345.5244" y="-714.9551" font-family="Arial" font-size="10.00" fill="#ffffff">(0.00%)</text>
<text text-anchor="middle" x="345.5244" y="-703.4561" font-family="Arial" font-size="10.00" fill="#ffffff">1×</text>
</a>
</g>
</g>
<!-- 90&#45;&gt;96 -->
<g id="edge13" class="edge">
<title>90&#45;&gt;96</title>
<path fill="none" stroke="#0d337e" stroke-width=".5" d="M345.5244,-790.7277C345.5244,-779.2007 345.5244,-765.7122 345.5244,-753.8171"/>
<polygon fill="#0d337e" stroke="#0d337e" stroke-width=".5" points="346.7495,-753.6805 345.5244,-750.1806 344.2995,-753.6806 346.7495,-753.6805"/>
<text text-anchor="middle" x="359.7017" y="-773.9512" font-family="Arial" font-size="10.00" fill="#0d337e">8.55%</text>
<text text-anchor="middle" x="359.7017" y="-762.4521" font-family="Arial" font-size="10.00" fill="#0d337e">1×</text>
</g>
<!-- 97 -->
<g id="node24" class="node">
<title>97</title>
<g id="a_node24"><a xlink:title="/Users/bbeckman/RecurrentLeastSquares/experiments.py">
<polygon fill="#f15802" stroke="#f15802" points="569.6159,-749.9512 453.4329,-749.9512 453.4329,-695.959 569.6159,-695.959 569.6159,-749.9512"/>
<text text-anchor="middle" x="511.5244" y="-737.9531" font-family="Arial" font-size="10.00" fill="#ffffff">experiments:53:mc_rls</text>
<text text-anchor="middle" x="511.5244" y="-726.4541" font-family="Arial" font-size="10.00" fill="#ffffff">90.98%</text>
<text text-anchor="middle" x="511.5244" y="-714.9551" font-family="Arial" font-size="10.00" fill="#ffffff">(0.00%)</text>
<text text-anchor="middle" x="511.5244" y="-703.4561" font-family="Arial" font-size="10.00" fill="#ffffff">1×</text>
</a>
</g>
</g>
<!-- 118&#45;&gt;97 -->
<g id="edge32" class="edge">
<title>118&#45;&gt;97</title>
<path fill="none" stroke="#f15802" stroke-width="3.64" d="M511.5244,-790.7277C511.5244,-781.0887 511.5244,-770.0782 511.5244,-759.7747"/>
<polygon fill="#f15802" stroke="#f15802" stroke-width="3.64" points="514.8495,-759.6805 511.5244,-750.1806 508.1995,-759.6806 514.8495,-759.6805"/>
<text text-anchor="middle" x="528.4824" y="-773.9512" font-family="Arial" font-size="10.00" fill="#f15802">90.98%</text>
<text text-anchor="middle" x="528.4824" y="-762.4521" font-family="Arial" font-size="10.00" fill="#f15802">1×</text>
</g>
<!-- 88 -->
<g id="node15" class="node">
<title>88</title>
<g id="a_node15"><a xlink:title="/Users/bbeckman/RecurrentLeastSquares/experiments.py">
<polygon fill="#0d1174" stroke="#0d1174" points="111.0733,-464.9688 -.0244,-464.9688 -.0244,-410.9766 111.0733,-410.9766 111.0733,-464.9688"/>
<text text-anchor="middle" x="55.5244" y="-452.9707" font-family="Arial" font-size="10.00" fill="#ffffff">experiments:18:zfake</text>
<text text-anchor="middle" x="55.5244" y="-441.4717" font-family="Arial" font-size="10.00" fill="#ffffff">1.13%</text>
<text text-anchor="middle" x="55.5244" y="-429.9727" font-family="Arial" font-size="10.00" fill="#ffffff">(0.14%)</text>
<text text-anchor="middle" x="55.5244" y="-418.4736" font-family="Arial" font-size="10.00" fill="#ffffff">200000×</text>
</a>
</g>
</g>
<!-- 89 -->
<g id="node16" class="node">
<title>89</title>
<g id="a_node16"><a xlink:title="/Users/bbeckman/RecurrentLeastSquares/experiments.py">
<polygon fill="#0d1274" stroke="#0d1274" points="154.0273,-559.9629 19.0215,-559.9629 19.0215,-505.9707 154.0273,-505.9707 154.0273,-559.9629"/>
<text text-anchor="middle" x="86.5244" y="-547.9648" font-family="Arial" font-size="10.00" fill="#ffffff">experiments:35:&lt;listcomp&gt;</text>
<text text-anchor="middle" x="86.5244" y="-536.4658" font-family="Arial" font-size="10.00" fill="#ffffff">1.22%</text>
<text text-anchor="middle" x="86.5244" y="-524.9668" font-family="Arial" font-size="10.00" fill="#ffffff">(0.09%)</text>
<text text-anchor="middle" x="86.5244" y="-513.4678" font-family="Arial" font-size="10.00" fill="#ffffff">2×</text>
</a>
</g>
</g>
<!-- 89&#45;&gt;88 -->
<g id="edge12" class="edge">
<title>89&#45;&gt;88</title>
<path fill="none" stroke="#0d1174" stroke-width=".5" d="M77.6411,-505.7453C73.8469,-494.1189 69.4017,-480.4971 65.4955,-468.5274"/>
<polygon fill="#0d1174" stroke="#0d1174" stroke-width=".5" points="66.6595,-468.1454 64.4091,-465.1981 64.3304,-468.9055 66.6595,-468.1454"/>
<text text-anchor="middle" x="95.1289" y="-488.9688" font-family="Arial" font-size="10.00" fill="#0d1174">1.13%</text>
<text text-anchor="middle" x="95.1289" y="-477.4697" font-family="Arial" font-size="10.00" fill="#0d1174">200000×</text>
</g>
<!-- 95 -->
<g id="node21" class="node">
<title>95</title>
<g id="a_node21"><a xlink:title="/Users/bbeckman/RecurrentLeastSquares/experiments.py">
<polygon fill="#0d3e81" stroke="#0d3e81" points="326.0274,-654.957 201.0215,-654.957 201.0215,-600.9648 326.0274,-600.9648 326.0274,-654.957"/>
<text text-anchor="middle" x="263.5244" y="-642.959" font-family="Arial" font-size="10.00" fill="#ffffff">experiments:33:mk_data</text>
<text text-anchor="middle" x="263.5244" y="-631.46" font-family="Arial" font-size="10.00" fill="#ffffff">10.71%</text>
<text text-anchor="middle" x="263.5244" y="-619.9609" font-family="Arial" font-size="10.00" fill="#ffffff">(0.00%)</text>
<text text-anchor="middle" x="263.5244" y="-608.4619" font-family="Arial" font-size="10.00" fill="#ffffff">2×</text>
</a>
</g>
</g>
<!-- 96&#45;&gt;95 -->
<g id="edge18" class="edge">
<title>96&#45;&gt;95</title>
<path fill="none" stroke="#0d257a" stroke-width=".5" d="M318.1889,-695.7292C315.4365,-692.8083 312.7192,-689.8478 310.1699,-686.957 302.1087,-677.8158 293.7245,-667.4972 286.3247,-658.0752"/>
<polygon fill="#0d257a" stroke="#0d257a" stroke-width=".5" points="287.1828,-657.1839 284.0613,-655.1822 285.2532,-658.6936 287.1828,-657.1839"/>
<text text-anchor="middle" x="324.7017" y="-678.957" font-family="Arial" font-size="10.00" fill="#0d257a">5.46%</text>
<text text-anchor="middle" x="324.7017" y="-667.458" font-family="Arial" font-size="10.00" fill="#0d257a">1×</text>
</g>
<!-- 110 -->
<g id="node22" class="node">
<title>110</title>
<g id="a_node22"><a xlink:title="~">
<polygon fill="#0c6389" stroke="#0c6389" points="459.1475,-464.9688 231.9013,-464.9688 231.9013,-410.9766 459.1475,-410.9766 459.1475,-464.9688"/>
<text text-anchor="middle" x="345.5244" y="-452.9707" font-family="Arial" font-size="10.00" fill="#ffffff">~:0:&lt;built&#45;in method numpy.core.multiarray.dot&gt;</text>
<text text-anchor="middle" x="345.5244" y="-441.4717" font-family="Arial" font-size="10.00" fill="#ffffff">17.41%</text>
<text text-anchor="middle" x="345.5244" y="-429.9727" font-family="Arial" font-size="10.00" fill="#ffffff">(17.41%)</text>
<text text-anchor="middle" x="345.5244" y="-418.4736" font-family="Arial" font-size="10.00" fill="#ffffff">300003×</text>
</a>
</g>
</g>
<!-- 96&#45;&gt;110 -->
<g id="edge19" class="edge">
<title>96&#45;&gt;110</title>
<path fill="none" stroke="#0d1575" stroke-width=".5" d="M345.5244,-695.8877C345.5244,-642.73 345.5244,-524.9971 345.5244,-468.882"/>
<polygon fill="#0d1575" stroke="#0d1575" stroke-width=".5" points="346.7495,-468.7762 345.5244,-465.2763 344.2995,-468.7763 346.7495,-468.7762"/>
<text text-anchor="middle" x="359.7017" y="-583.9629" font-family="Arial" font-size="10.00" fill="#0d1575">1.94%</text>
<text text-anchor="middle" x="359.7017" y="-572.4639" font-family="Arial" font-size="10.00" fill="#0d1575">3×</text>
</g>
<!-- 112 -->
<g id="node23" class="node">
<title>112</title>
<g id="a_node23"><a xlink:title="/anaconda3/lib/python3.6/site&#45;packages/numpy/core/fromnumeric.py">
<polygon fill="#0d1375" stroke="#0d1375" points="605.2483,-464.9688 467.8005,-464.9688 467.8005,-410.9766 605.2483,-410.9766 605.2483,-464.9688"/>
<text text-anchor="middle" x="536.5244" y="-452.9707" font-family="Arial" font-size="10.00" fill="#ffffff">fromnumeric:529:transpose</text>
<text text-anchor="middle" x="536.5244" y="-441.4717" font-family="Arial" font-size="10.00" fill="#ffffff">1.60%</text>
<text text-anchor="middle" x="536.5244" y="-429.9727" font-family="Arial" font-size="10.00" fill="#ffffff">(0.15%)</text>
<text text-anchor="middle" x="536.5244" y="-418.4736" font-family="Arial" font-size="10.00" fill="#ffffff">100001×</text>
</a>
</g>
</g>
<!-- 96&#45;&gt;112 -->
<g id="edge20" class="edge">
<title>96&#45;&gt;112</title>
<path fill="none" stroke="#0d1174" stroke-width=".5" d="M354.1702,-695.8999C372.9687,-638.4651 418.5221,-506.9109 451.5244,-473.9707 454.2041,-471.2961 458.7902,-468.3824 464.4878,-465.4091"/>
<polygon fill="#0d1174" stroke="#0d1174" stroke-width=".5" points="465.1924,-466.4255 467.7624,-463.7523 464.0863,-464.2394 465.1924,-466.4255"/>
<text text-anchor="middle" x="414.7017" y="-583.9629" font-family="Arial" font-size="10.00" fill="#0d1174">1.15%</text>
<text text-anchor="middle" x="414.7017" y="-572.4639" font-family="Arial" font-size="10.00" fill="#0d1174">1×</text>
</g>
<!-- 91 -->
<g id="node18" class="node">
<title>91</title>
<g id="a_node18"><a xlink:title="/Users/bbeckman/RecurrentLeastSquares/experiments.py">
<polygon fill="#0d367e" stroke="#0d367e" points="236.4649,-369.9746 106.584,-369.9746 106.584,-315.9824 236.4649,-315.9824 236.4649,-369.9746"/>
<text text-anchor="middle" x="171.5244" y="-357.9766" font-family="Arial" font-size="10.00" fill="#ffffff">experiments:6:&lt;listcomp&gt;</text>
<text text-anchor="middle" x="171.5244" y="-346.4775" font-family="Arial" font-size="10.00" fill="#ffffff">9.09%</text>
<text text-anchor="middle" x="171.5244" y="-334.9785" font-family="Arial" font-size="10.00" fill="#ffffff">(9.09%)</text>
<text text-anchor="middle" x="171.5244" y="-323.4795" font-family="Arial" font-size="10.00" fill="#ffffff">200000×</text>
</a>
</g>
</g>
<!-- 92 -->
<g id="node19" class="node">
<title>92</title>
<g id="a_node19"><a xlink:title="/Users/bbeckman/RecurrentLeastSquares/experiments.py">
<polygon fill="#0d377f" stroke="#0d377f" points="223.2855,-464.9688 119.7633,-464.9688 119.7633,-410.9766 223.2855,-410.9766 223.2855,-464.9688"/>
<text text-anchor="middle" x="171.5244" y="-452.9707" font-family="Arial" font-size="10.00" fill="#ffffff">experiments:5:arow</text>
<text text-anchor="middle" x="171.5244" y="-441.4717" font-family="Arial" font-size="10.00" fill="#ffffff">9.34%</text>
<text text-anchor="middle" x="171.5244" y="-429.9727" font-family="Arial" font-size="10.00" fill="#ffffff">(0.26%)</text>
<text text-anchor="middle" x="171.5244" y="-418.4736" font-family="Arial" font-size="10.00" fill="#ffffff">200000×</text>
</a>
</g>
</g>
<!-- 92&#45;&gt;91 -->
<g id="edge14" class="edge">
<title>92&#45;&gt;91</title>
<path fill="none" stroke="#0d367e" stroke-width=".5" d="M171.5244,-410.7511C171.5244,-399.2241 171.5244,-385.7357 171.5244,-373.8405"/>
<polygon fill="#0d367e" stroke="#0d367e" stroke-width=".5" points="172.7495,-373.704 171.5244,-370.204 170.2995,-373.704 172.7495,-373.704"/>
<text text-anchor="middle" x="191.1289" y="-393.9746" font-family="Arial" font-size="10.00" fill="#0d367e">9.09%</text>
<text text-anchor="middle" x="191.1289" y="-382.4756" font-family="Arial" font-size="10.00" fill="#0d367e">200000×</text>
</g>
<!-- 93 -->
<g id="node20" class="node">
<title>93</title>
<g id="a_node20"><a xlink:title="/Users/bbeckman/RecurrentLeastSquares/experiments.py">
<polygon fill="#0d387f" stroke="#0d387f" points="315.0273,-559.9629 180.0215,-559.9629 180.0215,-505.9707 315.0273,-505.9707 315.0273,-559.9629"/>
<text text-anchor="middle" x="247.5244" y="-547.9648" font-family="Arial" font-size="10.00" fill="#ffffff">experiments:36:&lt;listcomp&gt;</text>
<text text-anchor="middle" x="247.5244" y="-536.4658" font-family="Arial" font-size="10.00" fill="#ffffff">9.49%</text>
<text text-anchor="middle" x="247.5244" y="-524.9668" font-family="Arial" font-size="10.00" fill="#ffffff">(0.15%)</text>
<text text-anchor="middle" x="247.5244" y="-513.4678" font-family="Arial" font-size="10.00" fill="#ffffff">2×</text>
</a>
</g>
</g>
<!-- 93&#45;&gt;92 -->
<g id="edge15" class="edge">
<title>93&#45;&gt;92</title>
<path fill="none" stroke="#0d377f" stroke-width=".5" d="M225.7459,-505.7453C216.3647,-494.0195 205.3597,-480.2641 195.7244,-468.2208"/>
<polygon fill="#0d377f" stroke="#0d377f" stroke-width=".5" points="196.4492,-467.1658 193.3061,-465.1981 194.5361,-468.6964 196.4492,-467.1658"/>
<text text-anchor="middle" x="239.1289" y="-488.9688" font-family="Arial" font-size="10.00" fill="#0d377f">9.34%</text>
<text text-anchor="middle" x="239.1289" y="-477.4697" font-family="Arial" font-size="10.00" fill="#0d377f">200000×</text>
</g>
<!-- 95&#45;&gt;89 -->
<g id="edge16" class="edge">
<title>95&#45;&gt;89</title>
<path fill="none" stroke="#0d1274" stroke-width=".5" d="M212.8033,-600.7394C190.024,-588.514 163.1339,-574.0823 140.0344,-561.6851"/>
<polygon fill="#0d1274" stroke="#0d1274" stroke-width=".5" points="140.6099,-560.6037 136.9467,-560.0279 139.4513,-562.7625 140.6099,-560.6037"/>
<text text-anchor="middle" x="210.7017" y="-583.9629" font-family="Arial" font-size="10.00" fill="#0d1274">1.22%</text>
<text text-anchor="middle" x="210.7017" y="-572.4639" font-family="Arial" font-size="10.00" fill="#0d1274">2×</text>
</g>
<!-- 95&#45;&gt;93 -->
<g id="edge17" class="edge">
<title>95&#45;&gt;93</title>
<path fill="none" stroke="#0d387f" stroke-width=".5" d="M258.9395,-600.7394C256.9979,-589.2124 254.7261,-575.724 252.7225,-563.8288"/>
<polygon fill="#0d387f" stroke="#0d387f" stroke-width=".5" points="253.8994,-563.4402 252.11,-560.1923 251.4835,-563.8472 253.8994,-563.4402"/>
<text text-anchor="middle" x="271.7017" y="-583.9629" font-family="Arial" font-size="10.00" fill="#0d387f">9.49%</text>
<text text-anchor="middle" x="271.7017" y="-572.4639" font-family="Arial" font-size="10.00" fill="#0d387f">2×</text>
</g>
<!-- 112&#45;&gt;27 -->
<g id="edge31" class="edge">
<title>112&#45;&gt;27</title>
<path fill="none" stroke="#0d1375" stroke-width=".5" d="M486.2198,-410.9745C482.6783,-408.1668 479.3247,-405.1632 476.3154,-401.9746 468.621,-393.8217 462.3358,-383.3737 457.4971,-373.5416"/>
<polygon fill="#0d1375" stroke="#0d1375" stroke-width=".5" points="458.5295,-372.8613 455.9116,-370.235 456.3203,-373.9206 458.5295,-372.8613"/>
<text text-anchor="middle" x="495.1289" y="-393.9746" font-family="Arial" font-size="10.00" fill="#0d1375">1.46%</text>
<text text-anchor="middle" x="495.1289" y="-382.4756" font-family="Arial" font-size="10.00" fill="#0d1375">100001×</text>
</g>
<!-- 97&#45;&gt;95 -->
<g id="edge21" class="edge">
<title>97&#45;&gt;95</title>
<path fill="none" stroke="#0d2479" stroke-width=".5" d="M453.3794,-700.6832C416.3485,-686.4988 368.2789,-668.0862 329.7747,-653.3375"/>
<polygon fill="#0d2479" stroke="#0d2479" stroke-width=".5" points="329.7856,-652.03 326.079,-651.9219 328.9092,-654.3179 329.7856,-652.03"/>
<text text-anchor="middle" x="431.7017" y="-678.957" font-family="Arial" font-size="10.00" fill="#0d2479">5.25%</text>
<text text-anchor="middle" x="431.7017" y="-667.458" font-family="Arial" font-size="10.00" fill="#0d2479">1×</text>
</g>
<!-- 119 -->
<g id="node25" class="node">
<title>119</title>
<g id="a_node25"><a xlink:title="/Users/bbeckman/RecurrentLeastSquares/experiments.py">
<polygon fill="#e98803" stroke="#e98803" points="594.6402,-654.957 458.4086,-654.957 458.4086,-600.9648 594.6402,-600.9648 594.6402,-654.957"/>
<text text-anchor="middle" x="526.5244" y="-642.959" font-family="Arial" font-size="10.00" fill="#ffffff">experiments:26:my_reduce</text>
<text text-anchor="middle" x="526.5244" y="-631.46" font-family="Arial" font-size="10.00" fill="#ffffff">85.53%</text>
<text text-anchor="middle" x="526.5244" y="-619.9609" font-family="Arial" font-size="10.00" fill="#ffffff">(0.33%)</text>
<text text-anchor="middle" x="526.5244" y="-608.4619" font-family="Arial" font-size="10.00" fill="#ffffff">1×</text>
</a>
</g>
</g>
<!-- 97&#45;&gt;119 -->
<g id="edge22" class="edge">
<title>97&#45;&gt;119</title>
<path fill="none" stroke="#e98803" stroke-width="3.42" d="M515.8228,-695.7336C517.3605,-685.9952 519.1193,-674.8569 520.7607,-664.4622"/>
<polygon fill="#e98803" stroke="#e98803" stroke-width="3.42" points="523.971,-664.7761 522.2254,-655.1864 517.6098,-663.7716 523.971,-664.7761"/>
<text text-anchor="middle" x="537.4824" y="-678.957" font-family="Arial" font-size="10.00" fill="#e98803">85.53%</text>
<text text-anchor="middle" x="537.4824" y="-667.458" font-family="Arial" font-size="10.00" fill="#e98803">1×</text>
</g>
<!-- 108 -->
<g id="node29" class="node">
<title>108</title>
<g id="a_node29"><a xlink:title="/Users/bbeckman/RecurrentLeastSquares/experiments.py">
<polygon fill="#e98b03" stroke="#e98b03" points="585.2241,-559.9629 487.8247,-559.9629 487.8247,-505.9707 585.2241,-505.9707 585.2241,-559.9629"/>
<text text-anchor="middle" x="536.5244" y="-547.9648" font-family="Arial" font-size="10.00" fill="#ffffff">experiments:54:rls</text>
<text text-anchor="middle" x="536.5244" y="-536.4658" font-family="Arial" font-size="10.00" fill="#ffffff">85.20%</text>
<text text-anchor="middle" x="536.5244" y="-524.9668" font-family="Arial" font-size="10.00" fill="#ffffff">(5.66%)</text>
<text text-anchor="middle" x="536.5244" y="-513.4678" font-family="Arial" font-size="10.00" fill="#ffffff">100000×</text>
</a>
</g>
</g>
<!-- 119&#45;&gt;108 -->
<g id="edge33" class="edge">
<title>119&#45;&gt;108</title>
<path fill="none" stroke="#e98b03" stroke-width="3.41" d="M529.39,-600.7394C530.4152,-591.0011 531.5877,-579.8628 532.6819,-569.468"/>
<polygon fill="#e98b03" stroke="#e98b03" stroke-width="3.41" points="535.8975,-569.6789 533.6584,-560.1923 529.4928,-569.0046 535.8975,-569.6789"/>
<text text-anchor="middle" x="552.1289" y="-583.9629" font-family="Arial" font-size="10.00" fill="#e98b03">85.20%</text>
<text text-anchor="middle" x="552.1289" y="-572.4639" font-family="Arial" font-size="10.00" fill="#e98b03">100000×</text>
</g>
<!-- 104 -->
<g id="node27" class="node">
<title>104</title>
<g id="a_node27"><a xlink:title="/anaconda3/lib/python3.6/site&#45;packages/numpy/linalg/linalg.py">
<polygon fill="#61c608" stroke="#61c608" points="698.96,-464.9688 614.0888,-464.9688 614.0888,-410.9766 698.96,-410.9766 698.96,-464.9688"/>
<text text-anchor="middle" x="656.5244" y="-452.9707" font-family="Arial" font-size="10.00" fill="#ffffff">linalg:315:solve</text>
<text text-anchor="middle" x="656.5244" y="-441.4717" font-family="Arial" font-size="10.00" fill="#ffffff">61.74%</text>
<text text-anchor="middle" x="656.5244" y="-429.9727" font-family="Arial" font-size="10.00" fill="#ffffff">(58.70%)</text>
<text text-anchor="middle" x="656.5244" y="-418.4736" font-family="Arial" font-size="10.00" fill="#ffffff">100000×</text>
</a>
</g>
</g>
<!-- 104&#45;&gt;28 -->
<g id="edge24" class="edge">
<title>104&#45;&gt;28</title>
<path fill="none" stroke="#0d1074" stroke-width=".5" d="M614.014,-413.5144C612.4998,-412.6556 610.9996,-411.8069 609.5244,-410.9746 576.7775,-392.4994 554.6109,-402.371 535.5244,-369.9766 525.114,-352.3076 525.6412,-329.1007 528.6271,-310.6788"/>
<polygon fill="#0d1074" stroke="#0d1074" stroke-width=".5" points="529.8633,-310.7192 529.2546,-307.0613 527.4494,-310.3004 529.8633,-310.7192"/>
<text text-anchor="middle" x="608.1289" y="-393.9746" font-family="Arial" font-size="10.00" fill="#0d1074">0.75%</text>
<text text-anchor="middle" x="608.1289" y="-382.4756" font-family="Arial" font-size="10.00" fill="#0d1074">200000×</text>
</g>
<!-- 104&#45;&gt;41 -->
<g id="edge25" class="edge">
<title>104&#45;&gt;41</title>
<path fill="none" stroke="#0d1174" stroke-width=".5" d="M699.4114,-416.417C725.6805,-403.2138 759.6251,-386.1527 788.184,-371.7986"/>
<polygon fill="#0d1174" stroke="#0d1174" stroke-width=".5" points="789.0622,-372.7283 791.6393,-370.062 787.9619,-370.5393 789.0622,-372.7283"/>
<text text-anchor="middle" x="792.1289" y="-393.9746" font-family="Arial" font-size="10.00" fill="#0d1174">0.94%</text>
<text text-anchor="middle" x="792.1289" y="-382.4756" font-family="Arial" font-size="10.00" fill="#0d1174">100000×</text>
</g>
<!-- 105 -->
<g id="node28" class="node">
<title>105</title>
<g id="a_node28"><a xlink:title="~">
<polygon fill="#0d0f73" stroke="#0d0f73" points="772.711,-369.9746 540.3378,-369.9746 540.3378,-315.9824 772.711,-315.9824 772.711,-369.9746"/>
<text text-anchor="middle" x="656.5244" y="-357.9766" font-family="Arial" font-size="10.00" fill="#ffffff">~:0:&lt;method &#39;astype&#39; of &#39;numpy.ndarray&#39; objects&gt;</text>
<text text-anchor="middle" x="656.5244" y="-346.4775" font-family="Arial" font-size="10.00" fill="#ffffff">0.52%</text>
<text text-anchor="middle" x="656.5244" y="-334.9785" font-family="Arial" font-size="10.00" fill="#ffffff">(0.52%)</text>
<text text-anchor="middle" x="656.5244" y="-323.4795" font-family="Arial" font-size="10.00" fill="#ffffff">100003×</text>
</a>
</g>
</g>
<!-- 104&#45;&gt;105 -->
<g id="edge26" class="edge">
<title>104&#45;&gt;105</title>
<path fill="none" stroke="#0d0f73" stroke-width=".5" d="M656.5244,-410.7511C656.5244,-399.2241 656.5244,-385.7357 656.5244,-373.8405"/>
<polygon fill="#0d0f73" stroke="#0d0f73" stroke-width=".5" points="657.7495,-373.704 656.5244,-370.204 655.2995,-373.704 657.7495,-373.704"/>
<text text-anchor="middle" x="676.1289" y="-393.9746" font-family="Arial" font-size="10.00" fill="#0d0f73">0.52%</text>
<text text-anchor="middle" x="676.1289" y="-382.4756" font-family="Arial" font-size="10.00" fill="#0d0f73">100000×</text>
</g>
<!-- 108&#45;&gt;110 -->
<g id="edge29" class="edge">
<title>108&#45;&gt;110</title>
<path fill="none" stroke="#0c5887" stroke-width=".62" d="M487.3372,-508.5034C461.738,-495.7717 430.2808,-480.1264 403.5034,-466.8086"/>
<polygon fill="#0c5887" stroke="#0c5887" stroke-width=".62" points="404.0258,-465.5439 399.9259,-465.0293 402.81,-467.9883 404.0258,-465.5439"/>
<text text-anchor="middle" x="484.1289" y="-488.9688" font-family="Arial" font-size="10.00" fill="#0c5887">15.47%</text>
<text text-anchor="middle" x="484.1289" y="-477.4697" font-family="Arial" font-size="10.00" fill="#0c5887">300000×</text>
</g>
<!-- 108&#45;&gt;112 -->
<g id="edge30" class="edge">
<title>108&#45;&gt;112</title>
<path fill="none" stroke="#0d0f73" stroke-width=".5" d="M536.5244,-505.7453C536.5244,-494.2183 536.5244,-480.7298 536.5244,-468.8347"/>
<polygon fill="#0d0f73" stroke="#0d0f73" stroke-width=".5" points="537.7495,-468.6981 536.5244,-465.1981 535.2995,-468.6982 537.7495,-468.6981"/>
<text text-anchor="middle" x="556.1289" y="-488.9688" font-family="Arial" font-size="10.00" fill="#0d0f73">0.46%</text>
<text text-anchor="middle" x="556.1289" y="-477.4697" font-family="Arial" font-size="10.00" fill="#0d0f73">100000×</text>
</g>
<!-- 108&#45;&gt;107 -->
<g id="edge28" class="edge">
<title>108&#45;&gt;107</title>
<path fill="none" stroke="#0d1575" stroke-width=".5" d="M585.5382,-531.1735C689.6745,-526.0277 923.5244,-506.8087 923.5244,-437.9727 923.5244,-437.9727 923.5244,-437.9727 923.5244,-121.9922 923.5244,-97.455 872.8333,-73.1817 823.2746,-55.314"/>
<polygon fill="#0d1575" stroke="#0d1575" stroke-width=".5" points="823.4172,-54.064 819.7091,-54.0387 822.5921,-56.3709 823.4172,-54.064"/>
<text text-anchor="middle" x="943.1289" y="-283.4814" font-family="Arial" font-size="10.00" fill="#0d1575">1.88%</text>
<text text-anchor="middle" x="943.1289" y="-271.9824" font-family="Arial" font-size="10.00" fill="#0d1575">100000×</text>
</g>
<!-- 108&#45;&gt;104 -->
<g id="edge27" class="edge">
<title>108&#45;&gt;104</title>
<path fill="none" stroke="#61c608" stroke-width="2.47" d="M570.9116,-505.7453C584.8453,-494.7151 601.0477,-481.889 615.5845,-470.3814"/>
<polygon fill="#61c608" stroke="#61c608" stroke-width="2.47" points="617.6543,-472.2695 622.1322,-465.1981 614.2219,-467.9336 617.6543,-472.2695"/>
<text text-anchor="middle" x="630.1289" y="-488.9688" font-family="Arial" font-size="10.00" fill="#61c608">61.74%</text>
<text text-anchor="middle" x="630.1289" y="-477.4697" font-family="Arial" font-size="10.00" fill="#61c608">100000×</text>
</g>
</g>
</svg>
